<svg xmlns="http://www.w3.org/2000/svg" width="132.181" height="183.76" viewBox="0 0 132.181 183.76">
  <path id="Path_10" data-name="Path 10" d="M131.827,75.024c-.74.987-1.069,2.96-2.138,4.6-1.48,2.3-3.618,5.1-4.687,5.1-.576,0-.74-1.316-.74-1.316a7.479,7.479,0,0,1,.493-5.016,16.1,16.1,0,0,1,2.549-4.029,20.144,20.144,0,0,0,2.467-3.618A10.25,10.25,0,0,0,131,67.13c.082-.493-.082-1.562-.576-1.48-.658,0-2.467,3.947-4.358,6.167a47.962,47.962,0,0,1-5.18,4.687s-.329.247-.329-.411a13.086,13.086,0,0,1,.164-3.865,16.953,16.953,0,0,1,2.22-5.509,26.278,26.278,0,0,1,4.522-5.591c.411-.411,1.644-1.151.987-1.562-.576-.329-2.3,1.151-3.618,2.138a16.767,16.767,0,0,0-3.865,3.536,17.9,17.9,0,0,0-2.056,2.8,16.571,16.571,0,0,0-1.973,5.016,26.19,26.19,0,0,0-.411,3.865,24.991,24.991,0,0,0,.247,3.536,31.778,31.778,0,0,0,.74,3.536s.822,2.385,1.151,3.865.9,5.838.9,5.838a32.892,32.892,0,0,1,.164,6.085,26.052,26.052,0,0,1-.822,5.591A15.92,15.92,0,0,1,116.2,110.3a18.7,18.7,0,0,1-1.727,1.809A19.879,19.879,0,0,1,111.764,114a28.535,28.535,0,0,1-3.865,1.727,17.621,17.621,0,0,1-2.056.247h-1.069l-.329-.247-.164-.658a35.4,35.4,0,0,0-1.809-5.262,33.8,33.8,0,0,0-2.549-4.111,61.551,61.551,0,0,0-5.262-6.249,68.025,68.025,0,0,0-7.4-6c-.658-.493-2.138-1.4-2.138-1.4s-6-6-8.14-10.772c-1.48-3.289-2.467-5.674-2.056-9.291A6.99,6.99,0,0,1,75.5,69.6l1.069.329a7.025,7.025,0,0,0,1.973,1.316,13.541,13.541,0,0,0,1.4.329s.74.082,1.151.164c.411.164,1.151.411,1.645.658s1.233.74,1.233.74l1.4,1.069,1.48,1.151a8.67,8.67,0,0,0,1.069.658,3.233,3.233,0,0,0,.493.164h.329a.6.6,0,0,0,.411-.411c.082-.411-.411-.082-1.151-.9a5.334,5.334,0,0,1-1.151-1.4,3.7,3.7,0,0,0-.822-1.4,13.908,13.908,0,0,0-1.48-1.4,5.237,5.237,0,0,0-1.4-.658c-.822-.247-1.069-.247-1.151-.576s.987-.164.987-.164a8.172,8.172,0,0,1,2.22.658A6.51,6.51,0,0,1,86.768,71l.658.576.411.411.411.247s.411.411.493-.164a1.385,1.385,0,0,0-.164-.987l-.411-.411-1.645-1.4a8.237,8.237,0,0,0-1.316-1.151,9.994,9.994,0,0,0-2.138-1.151,21.229,21.229,0,0,1-2.138-.658,2.77,2.77,0,0,1-1.4-.9c-.082-.082-.493-.411.247-.247s1.233.411,2.056.576c1.316.329,2.138.329,3.371.74a10.951,10.951,0,0,1,1.151.493l1.562.658a11.315,11.315,0,0,0,3.618,1.233,7.145,7.145,0,0,0,3.207-.493,6.22,6.22,0,0,0,1.645-.987,3.645,3.645,0,0,0,.411-.493l.164-.411v-.329c-.411-.493-1.233.822-2.549,1.069-1.4.247-1.316.411-2.22.247a3.65,3.65,0,0,1-2.3-1.151c-1.316-1.233-1.809-2.385-3.536-3.125a16.338,16.338,0,0,0-2.056-.658,17.965,17.965,0,0,1-2.8-1.151c-.74-.411-2.3-.658-1.809-1.316.247-.329,2.22.822,3.7.987a14.7,14.7,0,0,0,2.631.082,19.427,19.427,0,0,0,2.138-.247,3.212,3.212,0,0,1,1.4.164,11.649,11.649,0,0,1,1.48.658c.576.247,1.233.658,1.4.658l.329.082.164-.164.082-.164-.082-.164-.247-.164-.493-.329a7.13,7.13,0,0,1-1.4-1.069,5.8,5.8,0,0,0-2.22-1.727,14.259,14.259,0,0,0-2.138-.493l-1.151-.082L84.794,58s-.822-.247-.164-.411a7.185,7.185,0,0,1,1.151-.247,3.783,3.783,0,0,1,1.891.082c.658.247,1.727.822,1.809.822a5.957,5.957,0,0,0,2.138,1.069,17.853,17.853,0,0,0,2.467.329l.658-.164.329-.082.247-.164-.082-.411s0-.329-.493-.411a5.438,5.438,0,0,1-2.385-.9A14.586,14.586,0,0,1,90.8,56.194a5.039,5.039,0,0,0-1.973-.9,7.884,7.884,0,0,0-1.645-.329l-.411-.164-.9-.411a3.135,3.135,0,0,1-.74-.658c-.329-.411-.822-1.151.576-.74a6.59,6.59,0,0,1,1.727.658,3.131,3.131,0,0,0,1.4.822c.411.082.74.164.987-.164.411-.411-.74-.9-1.562-1.48a5.554,5.554,0,0,1-1.316-1.48s-.493-.411.247-.247a9.519,9.519,0,0,1,2.056.987,7.12,7.12,0,0,0,.987.411c.247.082.9.493,1.233.658a10.22,10.22,0,0,1,1.48.493c.658.411.987,1.069,1.316,1.316s.576.658.987.74.493.247.74.082a2.432,2.432,0,0,0,.329-.247s.082-.164-.329-.411a4.367,4.367,0,0,1-.9-.9l-.164-.329-.082-.329-.411-.658-.74-1.069a8.975,8.975,0,0,0-2.22-2.138c-.987-.576-1.727-.9-1.727-.9s-.493-.247-.74-.411a5.162,5.162,0,0,1-.9-.987,15.015,15.015,0,0,0-1.069-1.316c-.9-.9-3.7-1.4-2.631-2.056a2.312,2.312,0,0,1,1.645-.082c.329.082,1.069.411,1.809.658.493.164.822.164,1.316.329a8.481,8.481,0,0,1,1.316.411c.247.164.493.493.658.576a5.554,5.554,0,0,0,1.891,1.727,6.868,6.868,0,0,0,2.878,1.069,10.142,10.142,0,0,0,2.385-.247s.411-.164.082-.576c-.411-.411-.411-.493-.74-.576-1.316-.493-2.385-.329-3.371-1.316a3.315,3.315,0,0,1-.9-1.151c-.329-.658-.164-.822-.411-1.233a6.143,6.143,0,0,0-.576-.987,11.179,11.179,0,0,0-2.549-2.22,14.781,14.781,0,0,1-2.549-1.645,5.366,5.366,0,0,1-.74-.822l-.411-.658-.247-.493c-.164-.9,1.48.247,2.385.576,1.48.493,2.22,1.151,3.7,1.645a20.591,20.591,0,0,1,2.138.576c1.4.576,1.809,1.973,3.289,2.138.822.082,2.467.411,2.138-.329-.329-.822-1.973-.822-2.8-1.809-.411-.411-.411-.822-.822-1.233a7.771,7.771,0,0,0-2.22-1.562,5.138,5.138,0,0,1-1.069-1.562c-.493-1.151-1.727-1.973-3.947-3.042-1.48-.74-4.44-.9-3.289-1.645a2.159,2.159,0,0,1,2.138-.164,21.4,21.4,0,0,1,1.973,1.069c.74.329,1.069.411,1.233.493a3.482,3.482,0,0,0,.987.329c.164.082,1.4.247,1.727.329l1.645.411,1.316.493a4.034,4.034,0,0,0,1.069.247,5.755,5.755,0,0,0,1.069-.164l.493-.329.082-.164s.247-.411-.411-.493a6.849,6.849,0,0,0-.987-.082l-.576-.164-.247-.082a11.364,11.364,0,0,0-2.138-1.316c-1.069-.411-1.233-.493-1.233-.493l-.411-.082-.493-.082a1.886,1.886,0,0,1-1.069-.576c-.658-.576-.9-.9-1.48-1.48l-.74-.74s-.658-.493-.658-.9c.082-.658,1.48.74,1.48.74l.987.658a4.731,4.731,0,0,0,2.3.658,12.369,12.369,0,0,0,3.289-.411s.247-.164,1.069.082a5.33,5.33,0,0,1,1.48.74l.658.576.987,1.069.164-.082c.082-.082.493-.493-.247-1.4A10.609,10.609,0,0,0,98.855,27.5a12.1,12.1,0,0,0-3.289-1.316,13.938,13.938,0,0,0-2.385-.329,2.93,2.93,0,0,1-1.973-.822,11.994,11.994,0,0,1-1.233-1.645l-.247-1.151a3.293,3.293,0,0,0-1.233-.822,17.108,17.108,0,0,1-1.562-.822S85.7,20.18,85.616,19.6c-.247-1.069,2.056,0,3.289.247,1.151.247,1.645.658,2.8.9A7.008,7.008,0,0,0,94.332,21a9.061,9.061,0,0,0,1.48-.164,9.91,9.91,0,0,1,1.562,0,10.53,10.53,0,0,1,1.973.9,3.778,3.778,0,0,0,1.316.576c.493.082,1.48.411,1.316-.082l-.247-.329c-.411-.576-.9-.576-1.4-.987a13.609,13.609,0,0,0-2.8-2.056,7.069,7.069,0,0,0-2.22-.74,13.323,13.323,0,0,1-1.809-.082,9.252,9.252,0,0,1-1.727-.987,22.251,22.251,0,0,0-3.042-1.727,20.094,20.094,0,0,0-2.22-.658l-.576-.082-.247-.082c-1.151-.411,2.056-1.316,3.536-1.727a4.591,4.591,0,0,1,1.809-.247c.658.082,1.4.987,2.138.576,1.069-.576-1.233-2.138-1.973-2.385a6.039,6.039,0,0,0-2.713-.082l-3.782-.082-1.069-.164a1.642,1.642,0,0,1-1.151-.576C82,9.244,80.107,6.941,77.969,6.612c-2.22-.329-2.878,0-3.042-.164-1.891-2.96-3.865-3.618-5.345-5.016C69.171,1.021,68.513.117,68.349.2a21.82,21.82,0,0,0-.822,2.385,2.344,2.344,0,0,0,.082,2.3c.329.493.74.822-.082,1.316a3.206,3.206,0,0,1-1.891.329,6.174,6.174,0,0,1-1.645-.576c-.74-.329-2.3-.987-2.3-.987a8.961,8.961,0,0,0-2.467-.329c-.987.082-1.069.164-1.809.247a4,4,0,0,0-.987.082c-.329.082-.74-.164-.74.247s.822.411,1.4.658,1.891.247,1.645.576a2.657,2.657,0,0,1-1.645.329,12.646,12.646,0,0,0-1.562-.164,5.436,5.436,0,0,0-2.713.822c-.247.082-.164.658.329.493a8.572,8.572,0,0,1,2.3-.329,9.5,9.5,0,0,1,2.549.576,8.665,8.665,0,0,0,2.138.576c.247,0,.74-.164.74.164,0,.164-.329.411-.329.411s-.74.164-.658.411c.164.329.822,0,1.151,0s.822.082.74.411l-.164.247a17.565,17.565,0,0,0-2.22.74c-2.056.822-2.878,1.809-4.851,2.8-1.891.9-4.934,2.056-4.934,2.056a10.327,10.327,0,0,1-2.22.822,19.968,19.968,0,0,1-2.3.411,4.34,4.34,0,0,0-2.056.658,4,4,0,0,0-1.151.9l-1.151,1.727-.658.987a3.841,3.841,0,0,0-.411.822,4.636,4.636,0,0,0-.329.987,5.377,5.377,0,0,0,.164,2.549c.082.247.082.411.164.658a1.356,1.356,0,0,0,.411.493l.329.082a16.429,16.429,0,0,0,1.891-.247c.74-.164,1.809-.411,1.809-.411l1.4-.411.9-.329s.576,0,.658.329c.082.247-.164.658-.164.658s-.493.247-.9.411-1.4.411-1.48.493l-1.069.329-.9.082a.985.985,0,0,0-.329.329c-.164.247-.164.247-.164.411.164.164.247.329.411.493a1.96,1.96,0,0,0,.9.493,3.06,3.06,0,0,0,1.48.164,4.458,4.458,0,0,0,2.056-.493,7.5,7.5,0,0,1,1.809-.74,4.243,4.243,0,0,1,.9-.164,13.37,13.37,0,0,1,4.029.329c1.562.247,2.3.74,3.865.987,1.645.247,2.631.74,4.358.329.822-.164,1.316-.576,1.727.247a1.886,1.886,0,0,1,.329,1.151,7.587,7.587,0,0,1-.576,2.056c-.576,1.562-2.385,5.427-2.385,5.427l-1.233,2.467A22.81,22.81,0,0,1,56.426,46c-2.3,2.549-2.467,2.713-2.467,2.713a14.355,14.355,0,0,0-2.467,2.467c-1.233,1.562-1.233,2.138-2.385,3.289a10.412,10.412,0,0,1-2.056,1.727c-.9.576-1.973.411-4.851,2.385-2.467,1.727-3.782,3.125-3.947,3.042s-.987-.74-1.316-.9c-.247-.164-5.016-3.371-5.016-3.371L29.95,56.03l-.9-.576-.164-.329-.493-.658a13.353,13.353,0,0,0-1.645-1.645,7.016,7.016,0,0,0-3.371-1.809,5.23,5.23,0,0,0-3.7-.164,4.919,4.919,0,0,0-2.056,1.316,12.888,12.888,0,0,0-1.645,2.467c-.658.987-1.316,1.891-1.645,2.385s-.987,1.809-.987,1.809-1.645,2.631-2.549,4.358c-1.069,1.891-1.48,3.042-2.467,4.851-1.562,2.878-3.782,5.838-4.358,7.154s-.658,1.48-.658,1.48-.164.74-.247,1.233S2.98,79.218,2.9,79.547a2.322,2.322,0,0,1-.411.9,18.027,18.027,0,0,0-1.316,3.207c-.329,1.233-1.069,5.1-.164,5.591s7.565-2.385,8.469-5.18c.576-1.809-1.809-2.713-1.151-4.358a5.367,5.367,0,0,1,.822-1.233c.658-1.069.411-3.289,1.645-5.345a59.667,59.667,0,0,1,5.18-6.167,26.868,26.868,0,0,0,3.042-4.522s.329-.987.987-.822a4.576,4.576,0,0,0,1.4.082l.329.247.658.658.987,1.48s1.645,2.385,2.22,3.042a14.326,14.326,0,0,0,1.973,1.809c.9.822,1.233,1.233,2.385,2.138,1.645,1.316,1.069,1.809-1.069.658a14.1,14.1,0,0,0-2.8-1.069c-.987-.247-4.687-1.233-6.578-1.48a8.534,8.534,0,0,0-2.138-.164A3.505,3.505,0,0,0,15.4,69.6a14.176,14.176,0,0,0-1.645,1.151,16.339,16.339,0,0,0-1.316,1.645c-.082.247-.658,1.233-.658,1.233a2.935,2.935,0,0,0-.411,1.069,3.117,3.117,0,0,0-.082,1.151l.082,1.233.082,1.151s.247,2.878.822,5.756c.164.822.329,2.138.329,2.138l.411,2.96s.247,3.125.493,4.193c.247.987.411,1.069.576,1.727.329,1.233-.247,1.809.329,3.289s1.069,1.316,1.645,2.22a7.775,7.775,0,0,1,.9,1.645,37.689,37.689,0,0,0,2.631,5.509c1.316,2.056,3.042,4.6,4.193,4.358s1.973-2.056,1.973-2.056a13.624,13.624,0,0,0,.493-6.989c-.822-3.536-4.6-1.891-5.1-4.44a8.143,8.143,0,0,1,0-1.48,6.207,6.207,0,0,0-.247-1.4,24.892,24.892,0,0,1-1.973-4.851c-.411-1.562-.329-6.578-.658-7.976-.9-3.618-.987-3.289-.493-3.947.576-.658,1.069-.493,1.069-.493l.74.082.576.247s.658.411,1.069.658c.329.247,1.48,1.151,1.48,1.151l2.8,1.809s1.562.9,2.22,1.233a10.453,10.453,0,0,1,1.233.74l.74.493,1.233.9.247.247.164.329S31.923,87.6,34.39,89c1.973,1.151,3.7.822,4.44,1.727a31.1,31.1,0,0,1,2.22,3.207c.822,1.316,1.809,2.878,2.138,3.371s2.385,3.042,2.385,3.042l2.713,2.96,3.536,3.289,3.207,2.713,2.056,1.645a34.526,34.526,0,0,0,3.865,3.125c1.973,1.316,2.056,1.48,3.371,2.385.987.658,2.3,1.562,3.618,2.549,1.316,1.069,2.8,3.042,2.22,3.7-.411.247-1.151-.822-2.549-2.056a35.267,35.267,0,0,0-2.878-2.3,32.488,32.488,0,0,0-3.865-2.713c-.822-.493-2.3-1.4-2.385-1.233a14.911,14.911,0,0,0-.411,5.509,23.912,23.912,0,0,0,.822,4.851,29.075,29.075,0,0,0,1.48,4.522c.658,1.727,1.891,4.44,1.891,4.44l1.891,3.782,1.727,2.878.9,1.48.329.493a2.087,2.087,0,0,1,0,1.645c-.411.658-.9,2.056-1.645,2.138A21.6,21.6,0,0,1,63,146.4l-9.785-.164-5.1-.411s-.576-.329-3.536-.329c-1.727,0-3.125.74-4.111.822-.822.082-4.851-.247-7.565.822-2.549,1.069-3.7,1.316-4.6,2.96-.658,1.233,3.207,3.207,6.414,3.947,5.18,1.151,3.7-1.069,5.674-2.467.247-.164.329-.329.576-.411,1.316-.411,2.056.658,3.371.658,1.48,0,2.3-.493,3.782-.74,7.483-.987,19.159,2.549,19.159,2.549s2.878.9,4.194.658c1.562-.329,1.233-.9,1.727-1.809.411-.74.247-.9.329-1.727a6.348,6.348,0,0,0-.164-1.233,22.878,22.878,0,0,0-1.233-3.371s-.658-1.48-.9-2.22a16.558,16.558,0,0,1-.822-2.878,17.62,17.62,0,0,1-.411-4.522,25.85,25.85,0,0,1,1.151-7.894c1.233-4.44,3.536-6.331,5.262-10.607.493-1.151.493-2.8,1.069-2.96.658-.082.576,2.056.247,3.289-1.069,4.276-3.7,6.085-4.934,10.443-.9,3.371-1.4,5.345-1.151,8.8a31.583,31.583,0,0,0,.822,4.851s.987,3.289,1.48,4.522,1.48,3.289,1.48,3.289l2.22,3.947,1.151,1.891a1.879,1.879,0,0,1,.411,1.973,8.506,8.506,0,0,1-2.22,3.042c-2.8,3.289-9.291,8.14-10.936,9.291-2.3,1.727-2.22,2.22-2.385,2.713-.9,2.631-3.536,2.713-6.414,5.838-.658.658-2.385,2.467-2.056,4.029.164.576,7.236,1.809,11.347.082,3.207-1.4.411-2.96,1.316-4.522.658-1.151,2.3-1.151,3.042-2.138,1.233-1.645.411-1.562,1.48-2.878a40.577,40.577,0,0,1,12.169-10.607c.576-.329,1.645-.822,1.645-.822a3.593,3.593,0,0,0,1.233-.9,3.262,3.262,0,0,0,.329-1.973c0-.493-.082-.74-.082-1.233a4.491,4.491,0,0,0-.082-1.48,5.768,5.768,0,0,0-1.069-2.138,5.887,5.887,0,0,1-1.233-2.713,6.886,6.886,0,0,1,.247-4.6,9.76,9.76,0,0,1,2.138-3.125l3.7-2.467s3.207-2.3,4.194-3.207a27.683,27.683,0,0,0,4.6-4.934,17.378,17.378,0,0,0,3.371-6.743c.247-1.069.493-2.713.493-2.713s0-1.151.658-1.233.822.164.822.164.576.329.74,1.973a13.793,13.793,0,0,1-.411,3.536s-.493,1.891-.658,3.042a15.2,15.2,0,0,0-.082,1.973,6.339,6.339,0,0,0,.576,2.549s.329.247.329-.329a12.162,12.162,0,0,1,.411-2.631c.247-.822.411-.658.9-2.056.658-1.809.082-1.645.411-2.713.164-.493.576-.987,1.069-.987s.576.658.576.658a11.014,11.014,0,0,1,.082,4.111,21.852,21.852,0,0,1-1.891,4.687l-1.151,1.973a18.491,18.491,0,0,0-1.151,2.3,3.793,3.793,0,0,0-.247,2.3c.247.987.987,2.3,1.4,2.056.329-.247-.493-1.069.493-3.042a12.414,12.414,0,0,1,2.3-3.207,24.5,24.5,0,0,0,2.631-3.782,32.186,32.186,0,0,0,1.48-3.865,13.34,13.34,0,0,0,.411-3.947,9.823,9.823,0,0,0-.411-2.631l-.74-1.316-.411-.987.164-.576c.164-.082.74.329,1.233.987a6.536,6.536,0,0,1,1.233,2.631,7.785,7.785,0,0,1,.329,2.3c0,.658-.247,3.371.74,5.1.411.822,1.4,2.713,1.48,1.891.164-1.891-.658-2.8-.576-4.522.082-1.973.576-1.48.74-2.467a6.946,6.946,0,0,0,.247-2.713,19.5,19.5,0,0,0-.74-3.042l-.576-1.316-.247-.493a.567.567,0,0,1,.411-.247l1.973-.658a21.839,21.839,0,0,0,3.536-1.973,17.942,17.942,0,0,0,2.3-2.056,32.867,32.867,0,0,0,2.467-3.536c1.973-3.7,1.973-8.387,1.891-10.525a34.842,34.842,0,0,0-.658-4.769,25.434,25.434,0,0,1-.493-5.427c.164-2.138.329-3.125.329-3.125a7.392,7.392,0,0,1,1.727-4.44c1.809-2.3,2.631-3.782,2.96-5.509.329-1.48-.164-3.865-.822-2.96Zm-54.433-14.8c-.247,0-.576-.329-.576-.329s-.082-.082.164-.247a.806.806,0,0,1,.576-.082l.247.082.411.576C78.134,60.47,77.641,60.306,77.394,60.224Zm.987-2.713a4.574,4.574,0,0,1-.658-.329s-.082-.164.164-.329a1.035,1.035,0,0,1,.658-.082l.247.164c.082.082.493.493.493.658C79.285,57.839,78.709,57.592,78.381,57.51Zm.9-2.8a3.567,3.567,0,0,1-.822-.411s-.082-.164.247-.329a1.6,1.6,0,0,1,.822-.082l.329.164c.164.164.576.576.576.822C80.354,55.126,79.614,54.8,79.285,54.714Zm.74-2.549a3.567,3.567,0,0,1-.822-.411s-.082-.164.247-.329a1.6,1.6,0,0,1,.822-.082l.329.164c.164.164.576.576.576.822C81.094,52.494,80.354,52.165,80.025,52.165Zm.74-3.042a2.625,2.625,0,0,1-.9-.493s-.082-.164.247-.411a1.215,1.215,0,0,1,.9-.082l.329.164c.164.164.658.658.658.9C82,49.534,81.094,49.123,80.765,49.123Zm.493-3.289a3.5,3.5,0,0,1-1.151-.576s-.164-.247.329-.493a1.988,1.988,0,0,1,1.069-.164l.411.247A4.128,4.128,0,0,1,82.738,46C82.738,46.327,81.752,45.916,81.258,45.834Zm.329-3.289a4,4,0,0,1-1.4-.74s-.164-.247.329-.576a2.07,2.07,0,0,1,1.316-.164,2.326,2.326,0,0,1,.493.247,4.3,4.3,0,0,1,.987,1.4C83.4,43.121,82.163,42.627,81.587,42.545Zm.493-3.782a4.189,4.189,0,0,1-1.562-.822s-.164-.329.411-.658a2.013,2.013,0,0,1,1.48-.164,1.388,1.388,0,0,1,.576.329,5.5,5.5,0,0,1,1.151,1.562C84.136,39.5,82.738,38.845,82.081,38.763Zm-.329-15.294a3.5,3.5,0,0,1-1.151-.576s-.164-.164.329-.411a1.923,1.923,0,0,1,1.151-.082,1.2,1.2,0,0,1,.411.247c.164.164.822.74.822,1.069C83.314,23.962,82.245,23.551,81.752,23.469Zm1.809,3.7c.082.329-1.069-.082-1.645-.164a3.851,3.851,0,0,1-1.233-.658s-.164-.247.329-.493a1.613,1.613,0,0,1,1.151-.164,2.326,2.326,0,0,1,.493.247A4.335,4.335,0,0,1,83.561,27.169Zm-2.385,6.085a2.07,2.07,0,0,1,1.316-.164,2.326,2.326,0,0,1,.493.247,4.3,4.3,0,0,1,.987,1.4c.082.411-1.151-.082-1.727-.247a4,4,0,0,1-1.4-.74S80.683,33.582,81.176,33.254Zm1.069-2.8a4,4,0,0,1-1.4-.74s-.164-.247.329-.576a2.07,2.07,0,0,1,1.316-.164,2.326,2.326,0,0,1,.493.247,4.3,4.3,0,0,1,.987,1.4C84.054,31.116,82.821,30.622,82.245,30.458Zm1.069-12.334c.658.164.822.576.493.576a2.537,2.537,0,0,1-.74.082c-.74,0-.658-.329-1.645.164a6.3,6.3,0,0,1-1.645.74c-1.316.493-.987-.822-.987-.822s.082-.247.247-.9.987,0,1.562,0A13.315,13.315,0,0,1,83.314,18.124Zm-3.7-5.1.411.247a4.127,4.127,0,0,1,.822,1.151c.082.329-.987-.082-1.4-.164a3.5,3.5,0,0,1-1.151-.576s-.164-.247.329-.493A1.205,1.205,0,0,1,79.614,13.026Zm-2.96-3.947a1.988,1.988,0,0,1,1.069-.164l.411.247a4.127,4.127,0,0,1,.822,1.151c.082.329-.987-.082-1.4-.164a3.5,3.5,0,0,1-1.151-.576S76.243,9.326,76.654,9.079Zm-.822,53.282a.806.806,0,0,1,.576-.082l.247.082.411.576c0,.164-.493-.082-.74-.082s-.576-.329-.576-.329S75.585,62.444,75.832,62.361ZM42.859,23.222c-.247.164-.411.247-.74.493-.411.329-.822,1.151-1.069.9-.329-.247-.164-1.151-.164-1.151s.247-.658.576-1.316a1.188,1.188,0,0,1,.9-.658c.493,0,1.4.329,1.4,1.069C43.846,23.3,43.27,22.975,42.859,23.222ZM49.6,25.771s-.329.082-.411-.493a.533.533,0,0,1,.411-.658s.987-.493.987.164C50.671,25.36,49.6,25.771,49.6,25.771Zm8.8-11.183a6.948,6.948,0,0,1-2.549,2.385,13.663,13.663,0,0,1-5.262,1.233c-.411,0-.247-.247-.247-.247a30.925,30.925,0,0,0,5.016-1.891,17.835,17.835,0,0,0,2.467-1.645C58.975,13.437,58.4,14.588,58.4,14.588ZM3.144,85.8c0,.411-.493,1.151-.658,1.151s-.493-.74-.411-1.151.164-1.562.822-1.4C3.391,84.48,3.144,85.385,3.144,85.8ZM5.282,76.5s-.74,1.562-.987.9c-.247-.576.247-1.645.247-1.645.658-.576.9-1.4,1.233-1.069C6.022,75.024,5.282,76.5,5.282,76.5Zm10.2-16.034c-.74.822-3.042,5.18-3.536,4.44-.493-.576,2.22-4.687,2.8-5.509.576-.9,1.069-.74,1.069-.74l.164.164A2.146,2.146,0,0,1,15.478,60.47Zm6.167-6.5s-1.645.329-1.4-.247c.329-.576,1.48-.822,1.48-.822.9.164,1.069.247.987.658C22.8,53.974,21.645,53.974,21.645,53.974Zm6.66,11.512c-.74.74-.987-.247-2.056-1.48a2.481,2.481,0,0,1-.822-2.138h.164l.164.082.411.164.247.247.822.822C27.565,63.677,28.47,65.321,28.305,65.486ZM15.56,90.071c-.247,0-.493-.493-.493-.493a9.281,9.281,0,0,1-.9-1.727,7.911,7.911,0,0,1-.329-1.727s-.164-1.4-.164-1.891c.082-.658.082-1.233.164-1.562a.332.332,0,0,1,.411-.247.433.433,0,0,1,.493.411v.247s0,1.48.082,2.631c0,.329.9,4.029.9,4.029S15.889,90.071,15.56,90.071ZM15.4,72.8c-.576.9-.987.9-.987.9,0-.082-.164-.411.329-1.4s.987-.9.987-.9l.164.164S15.971,71.9,15.4,72.8Zm5.838,34.452c.164-.329,1.233.493,1.233.493.411.082.822.822.822.822s.164.576-.329.74a.658.658,0,0,1-.822-.247S21.069,107.585,21.234,107.257ZM28.963,82.1c-1.151-.247-3.618-2.138-4.6-2.631s-2.631-.658-1.891-1.316c.082-.082.164-.247.329-.247a6.67,6.67,0,0,1,.9.247l1.809.74a12.555,12.555,0,0,1,1.727.822c.658.411,1.809,1.151,1.809,1.151l.493.411C29.539,81.438,30.114,82.342,28.963,82.1ZM38.994,65.733s-1.4,1.891-2.22,3.042c-1.069,1.562-2.385,3.947-2.631,3.7S35.294,69.6,36.034,68.2a5.63,5.63,0,0,1,2.549-2.8C39.652,64.91,38.994,65.733,38.994,65.733Zm-4.44,82.308s0,.329-.576.74-.822.164-.9.164-.658-.329-.658-.658c.082-.329.987-.576.987-.576,1.562-.082,1.151.329,1.151.329Zm12.745-.493c-.576-.082-.658-.247-.576-.329,0-.082.164-.247.822-.247s.658.329.658.329C48.2,147.547,47.957,147.629,47.3,147.547Zm14.636.822a11.367,11.367,0,0,1-2.8.247,20.156,20.156,0,0,1-2.22.164,9.458,9.458,0,0,1-3.947-.576c-.411-.164-.9-.658-.74-.822a.481.481,0,0,1,.493-.164,46.024,46.024,0,0,0,4.6.576,21.979,21.979,0,0,0,3.289.082c.74,0,.329-.082,1.48-.082C62.511,147.711,62.264,148.287,61.935,148.369Zm7.811-2.3a3.314,3.314,0,0,1-.987.329c-.493.082-.247-.329-.247-.329a2.818,2.818,0,0,1,.74-.74c.493-.247.74,0,.74,0C70.158,145.656,69.829,145.985,69.747,146.067Zm6.085-15.787a6.354,6.354,0,0,0-.822,2.8c-.164,1.233.576,4.687-.576,3.371a8.832,8.832,0,0,1-.493-4.6C74.516,128.882,76.9,128.06,75.832,130.28Zm-16.61,50.24c-.493.329.493,1.316-1.069,1.233-.9-.082-.411-.9-.329-.987l.576-.822a2.618,2.618,0,0,1,1.069-.9c.411-.247.74.411.74.411a1.137,1.137,0,0,1,.164.576C60.373,180.273,59.633,180.191,59.222,180.519Zm8.634-8.3-.74.576c-.082,0-.576.411-.74.164s.082-.576.082-.658a2.241,2.241,0,0,1,.9-.822.526.526,0,0,1,.658,0c.247.576-.164.74-.164.74ZM71.72,28.156s-.329,1.069-.987,1.316c-.822.247-3.947.329-4.029.082s3.618-.576,5.016-1.973C72.049,27.251,71.72,28.156,71.72,28.156Zm-1.151-2.713c.247-.411.082.658.082.658s-.247,1.069-.822,1.4c-.74.411-2.549.9-2.713.658C67.116,27.991,69.5,27.251,70.569,25.442Zm-5.1-12.334a2.041,2.041,0,0,1,.822.247,3.116,3.116,0,0,1,.822,1.316s.082.164-.329.164c-.247,0-.247-.411-.493-.576a3.7,3.7,0,0,0-.987-.493c-.411-.164-.987.082-1.069-.329C64.238,12.944,65.471,13.108,65.471,13.108Zm-3.782,2.713a1.879,1.879,0,0,1,.9-.9,3.387,3.387,0,0,1,1.562-.411,2.022,2.022,0,0,1,1.069.411,4.925,4.925,0,0,1,1.069,1.809s.164.9-.247,1.233-1.069-.247-1.4-.74a2.075,2.075,0,0,0-1.233-.822c-.658-.247-1.645.493-1.809,0A4.637,4.637,0,0,1,61.689,15.822Zm-.247,11.347c-.493.082-.164-.411-.164-.411s1.4-.576,2.3-1.069c1.48-.74,4.276-3.7,3.536-2.3a6.383,6.383,0,0,1-1.316,1.48s-1.151,1.645-1.4,1.891c-1.069.822-2.385.329-2.96.411Zm-11.594,31.9.082-.164a9.852,9.852,0,0,1,6.331-1.151c2.3.329,4.522,2.385,4.193,2.631s-.822,0-.987,0l-.822-.411-1.233-.329a17.806,17.806,0,0,0-3.865-.411,11.3,11.3,0,0,0-3.125.658s-.658.329-.822-.082A.772.772,0,0,1,49.848,59.072Zm6.085,46.293C50.259,101.007,43.352,92.127,44.175,91.3c.74-.658,3.536,3.453,7.729,7.976,4.44,4.769,9.62,9.291,9.785,9.867.329.987-3.618-2.138-5.756-3.782ZM68.842,43.943a36.557,36.557,0,0,1-5.674,7.236c-1.151.822-.411-.658-.411-.658a62.5,62.5,0,0,0,4.687-7.565c1.069-2.22,1.727-5.18,2.22-5.756C70.816,35.8,70.24,41.476,68.842,43.943ZM75.42,89a20.016,20.016,0,0,1-4.851-10.2c-.164-.9-.164-2.22.658-2.056.74.082.658,1.48.658,1.809a17.872,17.872,0,0,0,3.042,7.647c2.549,4.029,6.66,7.154,6.5,7.4C81.012,94.018,76.9,90.811,75.42,89Zm.74,76.881c-1.4,1.316-3.782,3.125-3.782,3.125h-.329V168.6l.082-.164.164-.247.164-.247.164-.247.493-.576,1.151-1.069,1.151-1.069,1.809-1.809a9.118,9.118,0,0,1,.9-.9c.247-.164.411-.329.658-.493.329-.164.74-.411.9-.247v.329c.082.247-2.056,2.631-3.536,4.029Zm5.1-60.847c-1.069.74-1.48.658-2.138,1.4-.74.9-.987,3.947-1.727,2.713s-.247-2.96.987-4.276C79.861,103.145,83.067,103.721,81.258,105.036Zm3.865,54.1a1.286,1.286,0,0,1,.74-.082l.164.329c0,.082-.658.987-.987.987-.411-.082-.247-.576-.247-.576a.509.509,0,0,1,.329-.658Zm14.061-33.466c-.74-.493.411-1.973.411-3.207,0-.987-.164-1.727-.164-2.549a1.17,1.17,0,0,1,.822-1.069c.164,0,.493.164.9.987S100.5,126.5,99.184,125.675Zm25.161-23.517c-.164,3.453-.329,5.92-2.385,8.551-2.467,3.207-6.742,6.5-5.838,3.865.576-1.562,4.358-3.536,5.838-7.894a24.748,24.748,0,0,0,.987-5.1l-.164-5.016a5.56,5.56,0,0,1-.082-.987c.247-.658.576-.164.576-.164l.164.247A33.6,33.6,0,0,1,124.345,102.159Z" transform="translate(-0.573 -0.194)" fill="#fff"/>
</svg>
